<svg width="20" height="20" viewBox="0 0 20 20" fill="none" xmlns="http://www.w3.org/2000/svg">
<path d="M18 3.50004C18 3.15316 17.8219 2.83129 17.525 2.65004C17.2281 2.46879 16.8625 2.45004 16.5531 2.60629L12.9219 4.42191L7.31563 2.55004C7.0625 2.46566 6.79062 2.48441 6.55312 2.60316L2.55312 4.60316C2.2125 4.77504 2 5.12191 2 5.50004V16.5C2 16.8469 2.17812 17.1688 2.475 17.35C2.77187 17.5313 3.1375 17.55 3.44688 17.3938L7.075 15.5782L12.6812 17.4469C12.9344 17.5313 13.2063 17.5125 13.4438 17.3938L17.4438 15.3938C17.7813 15.225 17.9969 14.8782 17.9969 14.5V3.50004H18ZM8 13.7782V4.88754L12 6.22191V15.1125L8 13.7782Z" fill="#7F35B2"/>
</svg>