<svg width="268" height="32" viewBox="0 0 268 32" fill="none" xmlns="http://www.w3.org/2000/svg">
<path d="M81.6 8.01682L73.5979 28.6906H66.8594L63.4901 17.1455L60.0944 28.6906H53.3611L47.4438 13.2708H43.7587V20.2147C43.7587 23.4734 45.0748 24.0104 46.8752 24.0104C47.3523 24.0009 47.827 23.9409 48.2914 23.8314L50.134 28.6327C48.6988 28.9844 47.2263 29.1611 45.7486 29.1591C39.5786 29.1591 36.9464 26.6374 36.9464 20.7359V13.2708H34.1351L28.1704 28.6906H21.4318L18.0678 17.1455L14.6617 28.6906H7.92836L0 8.01682H7.63881L11.6241 20.5095L15.425 8.01682H20.6895L24.5274 20.5095L28.4916 8.01682H36.9464V4.30007L43.7587 2.8418V8.01682H53.0716L57.0516 20.5095L60.8525 8.01682H66.1171L69.9549 20.5095L73.9033 8.01682H81.6Z" fill="#7F35B2"/>
<path d="M94.6001 32H93.6001V0H94.6001V32Z" fill="#D1D5DB"/>
<path d="M94.6001 32H93.6001V0H94.6001V32Z" stroke="#E5E7EB"/>
<path d="M111.26 15.24H113.12C114.48 15.24 115.06 14.56 115.06 13.48C115.06 12.4 114.48 11.72 113.12 11.72H111.26V15.24ZM118.54 13.48C118.54 15.8 116.96 17.96 113.38 17.96H111.26V23H107.84V8.96H113.38C116.82 8.96 118.54 10.9 118.54 13.48ZM123.741 15.24H125.601C126.961 15.24 127.541 14.56 127.541 13.48C127.541 12.4 126.961 11.72 125.601 11.72H123.741V15.24ZM131.021 13.48C131.021 15.8 129.441 17.96 125.861 17.96H123.741V23H120.321V8.96H125.861C129.301 8.96 131.021 10.9 131.021 13.48ZM132.041 11.7V8.96H142.901V11.7H139.181V23H135.761V11.7H132.041ZM153.217 23L150.357 18.7L147.837 23H143.957L148.457 15.86L143.857 8.96H147.837L150.657 13.2L153.137 8.96H157.017L152.557 16.04L157.197 23H153.217ZM169.713 8.8C173.073 8.8 175.513 10.52 176.253 13.4H172.473C171.953 12.46 170.993 11.96 169.713 11.96C167.513 11.96 166.053 13.52 166.053 15.96C166.053 18.56 167.533 20.08 169.993 20.08C171.693 20.08 172.873 19.18 173.393 17.6H169.053V15.08H176.493V18.26C175.773 20.68 173.433 23.1 169.733 23.1C165.533 23.1 162.573 20.16 162.573 15.96C162.573 11.76 165.513 8.8 169.713 8.8ZM183.307 14.42C182.187 14.42 181.327 15.1 181.127 16.34H185.407C185.407 15.12 184.447 14.42 183.307 14.42ZM188.647 19.3C188.107 21.48 186.127 23.16 183.347 23.16C180.067 23.16 177.707 20.96 177.707 17.42C177.707 13.88 180.027 11.68 183.347 11.68C186.607 11.68 188.907 13.84 188.907 17.24C188.907 17.56 188.887 17.9 188.847 18.24H181.107C181.227 19.7 182.127 20.38 183.227 20.38C184.187 20.38 184.727 19.9 185.007 19.3H188.647ZM198.411 23V16.94C198.411 15.42 197.571 14.58 196.271 14.58C194.971 14.58 194.131 15.42 194.131 16.94V23H190.711V11.84H194.131V13.32C194.811 12.38 196.011 11.72 197.511 11.72C200.091 11.72 201.811 13.48 201.811 16.48V23H198.411ZM209.108 14.42C207.988 14.42 207.128 15.1 206.928 16.34H211.208C211.208 15.12 210.248 14.42 209.108 14.42ZM214.448 19.3C213.908 21.48 211.928 23.16 209.148 23.16C205.868 23.16 203.508 20.96 203.508 17.42C203.508 13.88 205.828 11.68 209.148 11.68C212.408 11.68 214.708 13.84 214.708 17.24C214.708 17.56 214.688 17.9 214.648 18.24H206.908C207.028 19.7 207.928 20.38 209.028 20.38C209.988 20.38 210.528 19.9 210.808 19.3H214.448ZM219.932 17.82V23H216.512V11.84H219.932V13.7C220.712 12.52 221.932 11.72 223.432 11.72V15.34H222.492C220.872 15.34 219.932 15.9 219.932 17.82ZM224.387 17.4C224.387 13.88 226.567 11.68 229.307 11.68C230.967 11.68 232.147 12.44 232.747 13.42V11.84H236.167V23H232.747V21.42C232.127 22.4 230.947 23.16 229.287 23.16C226.567 23.16 224.387 20.92 224.387 17.4ZM232.747 17.42C232.747 15.64 231.607 14.66 230.307 14.66C229.027 14.66 227.867 15.62 227.867 17.4C227.867 19.18 229.027 20.18 230.307 20.18C231.607 20.18 232.747 19.2 232.747 17.42ZM239.181 19.12V14.68H237.821V11.84H239.181V9.12H242.601V11.84H244.841V14.68H242.601V19.16C242.601 19.82 242.881 20.1 243.641 20.1H244.861V23H243.121C240.801 23 239.181 22.02 239.181 19.12ZM257.686 17.42C257.686 20.96 255.126 23.16 251.846 23.16C248.566 23.16 246.086 20.96 246.086 17.42C246.086 13.88 248.626 11.68 251.886 11.68C255.166 11.68 257.686 13.88 257.686 17.42ZM249.566 17.42C249.566 19.3 250.606 20.2 251.846 20.2C253.066 20.2 254.206 19.3 254.206 17.42C254.206 15.52 253.086 14.64 251.886 14.64C250.646 14.64 249.566 15.52 249.566 17.42ZM262.92 17.82V23H259.5V11.84H262.92V13.7C263.7 12.52 264.92 11.72 266.42 11.72V15.34H265.48C263.86 15.34 262.92 15.9 262.92 17.82Z" fill="#111827"/>
</svg>
