<svg width="121" height="76" viewBox="0 0 121 76" fill="none" xmlns="http://www.w3.org/2000/svg">
<path d="M120 7.61032L108.232 38.0129H98.3226L93.3677 21.0348L88.3742 38.0129H78.4723L69.7703 15.3368H64.351V25.5484C64.351 30.3406 66.2865 31.1303 68.9342 31.1303C69.6357 31.1164 70.3338 31.0282 71.0168 30.8671L73.7265 37.9277C71.6159 38.4449 69.4505 38.7049 67.2774 38.7019C58.2039 38.7019 54.3329 34.9936 54.3329 26.3148V15.3368H50.1987L41.4271 38.0129H31.5174L26.5703 21.0348L21.5613 38.0129H11.6594L0 7.61032H11.2335L17.0942 25.9819L22.6839 7.61032H30.4258L36.0697 25.9819L41.8994 7.61032H54.3329V2.14452L64.351 0V7.61032H78.0464L83.8994 25.9819L89.489 7.61032H97.231L102.875 25.9819L108.681 7.61032H120Z" fill="#7F35B2"/>
<path d="M121 47.7021H0V46.7021H121V47.7021Z" fill="#D1D5DB"/>
<path d="M121 47.7021H0V46.7021H121V47.7021Z" stroke="#E5E7EB"/>
<path d="M8.955 63.5621C8.955 64.1721 8.815 64.7321 8.535 65.2421C8.255 65.7421 7.825 66.1471 7.245 66.4571C6.665 66.7671 5.945 66.9221 5.085 66.9221H3.495V70.7021H0.93V60.1721H5.085C5.925 60.1721 6.635 60.3171 7.215 60.6071C7.795 60.8971 8.23 61.2971 8.52 61.8071C8.81 62.3171 8.955 62.9021 8.955 63.5621ZM4.89 64.8821C5.38 64.8821 5.745 64.7671 5.985 64.5371C6.225 64.3071 6.345 63.9821 6.345 63.5621C6.345 63.1421 6.225 62.8171 5.985 62.5871C5.745 62.3571 5.38 62.2421 4.89 62.2421H3.495V64.8821H4.89ZM18.3154 63.5621C18.3154 64.1721 18.1754 64.7321 17.8954 65.2421C17.6154 65.7421 17.1854 66.1471 16.6054 66.4571C16.0254 66.7671 15.3054 66.9221 14.4454 66.9221H12.8554V70.7021H10.2904V60.1721H14.4454C15.2854 60.1721 15.9954 60.3171 16.5754 60.6071C17.1554 60.8971 17.5904 61.2971 17.8804 61.8071C18.1704 62.3171 18.3154 62.9021 18.3154 63.5621ZM14.2504 64.8821C14.7404 64.8821 15.1054 64.7671 15.3454 64.5371C15.5854 64.3071 15.7054 63.9821 15.7054 63.5621C15.7054 63.1421 15.5854 62.8171 15.3454 62.5871C15.1054 62.3571 14.7404 62.2421 14.2504 62.2421H12.8554V64.8821H14.2504ZM27.2257 60.1721V62.2271H24.4357V70.7021H21.8707V62.2271H19.0807V60.1721H27.2257ZM34.963 70.7021L32.818 67.4771L30.928 70.7021H28.018L31.393 65.3471L27.943 60.1721H30.928L33.043 63.3521L34.903 60.1721H37.813L34.468 65.4821L37.948 70.7021H34.963ZM49.4044 63.5021C49.2144 63.1521 48.9394 62.8871 48.5794 62.7071C48.2294 62.5171 47.8144 62.4221 47.3344 62.4221C46.5044 62.4221 45.8394 62.6971 45.3394 63.2471C44.8394 63.7871 44.5894 64.5121 44.5894 65.4221C44.5894 66.3921 44.8494 67.1521 45.3694 67.7021C45.8994 68.2421 46.6244 68.5121 47.5444 68.5121C48.1744 68.5121 48.7044 68.3521 49.1344 68.0321C49.5744 67.7121 49.8944 67.2521 50.0944 66.6521H46.8394V64.7621H52.4194V67.1471C52.2294 67.7871 51.9044 68.3821 51.4444 68.9321C50.9944 69.4821 50.4194 69.9271 49.7194 70.2671C49.0194 70.6071 48.2294 70.7771 47.3494 70.7771C46.3094 70.7771 45.3794 70.5521 44.5594 70.1021C43.7494 69.6421 43.1144 69.0071 42.6544 68.1971C42.2044 67.3871 41.9794 66.4621 41.9794 65.4221C41.9794 64.3821 42.2044 63.4571 42.6544 62.6471C43.1144 61.8271 43.7494 61.1921 44.5594 60.7421C45.3694 60.2821 46.2944 60.0521 47.3344 60.0521C48.5944 60.0521 49.6544 60.3571 50.5144 60.9671C51.3844 61.5771 51.9594 62.4221 52.2394 63.5021H49.4044ZM61.7302 66.3821C61.7302 66.6221 61.7152 66.8721 61.6852 67.1321H55.8802C55.9202 67.6521 56.0852 68.0521 56.3752 68.3321C56.6752 68.6021 57.0402 68.7371 57.4702 68.7371C58.1102 68.7371 58.5552 68.4671 58.8052 67.9271H61.5352C61.3952 68.4771 61.1402 68.9721 60.7702 69.4121C60.4102 69.8521 59.9552 70.1971 59.4052 70.4471C58.8552 70.6971 58.2402 70.8221 57.5602 70.8221C56.7402 70.8221 56.0102 70.6471 55.3702 70.2971C54.7302 69.9471 54.2302 69.4471 53.8702 68.7971C53.5102 68.1471 53.3302 67.3871 53.3302 66.5171C53.3302 65.6471 53.5052 64.8871 53.8552 64.2371C54.2152 63.5871 54.7152 63.0871 55.3552 62.7371C55.9952 62.3871 56.7302 62.2121 57.5602 62.2121C58.3702 62.2121 59.0902 62.3821 59.7202 62.7221C60.3502 63.0621 60.8402 63.5471 61.1902 64.1771C61.5502 64.8071 61.7302 65.5421 61.7302 66.3821ZM59.1052 65.7071C59.1052 65.2671 58.9552 64.9171 58.6552 64.6571C58.3552 64.3971 57.9802 64.2671 57.5302 64.2671C57.1002 64.2671 56.7352 64.3921 56.4352 64.6421C56.1452 64.8921 55.9652 65.2471 55.8952 65.7071H59.1052ZM68.1833 62.2421C69.1633 62.2421 69.9433 62.5621 70.5233 63.2021C71.1133 63.8321 71.4083 64.7021 71.4083 65.8121V70.7021H68.8583V66.1571C68.8583 65.5971 68.7133 65.1621 68.4233 64.8521C68.1333 64.5421 67.7433 64.3871 67.2533 64.3871C66.7633 64.3871 66.3733 64.5421 66.0833 64.8521C65.7933 65.1621 65.6483 65.5971 65.6483 66.1571V70.7021H63.0833V62.3321H65.6483V63.4421C65.9083 63.0721 66.2583 62.7821 66.6983 62.5721C67.1383 62.3521 67.6333 62.2421 68.1833 62.2421ZM81.0807 66.3821C81.0807 66.6221 81.0657 66.8721 81.0357 67.1321H75.2307C75.2707 67.6521 75.4357 68.0521 75.7257 68.3321C76.0257 68.6021 76.3907 68.7371 76.8207 68.7371C77.4607 68.7371 77.9057 68.4671 78.1557 67.9271H80.8857C80.7457 68.4771 80.4907 68.9721 80.1207 69.4121C79.7607 69.8521 79.3057 70.1971 78.7557 70.4471C78.2057 70.6971 77.5907 70.8221 76.9107 70.8221C76.0907 70.8221 75.3607 70.6471 74.7207 70.2971C74.0807 69.9471 73.5807 69.4471 73.2207 68.7971C72.8607 68.1471 72.6807 67.3871 72.6807 66.5171C72.6807 65.6471 72.8557 64.8871 73.2057 64.2371C73.5657 63.5871 74.0657 63.0871 74.7057 62.7371C75.3457 62.3871 76.0807 62.2121 76.9107 62.2121C77.7207 62.2121 78.4407 62.3821 79.0707 62.7221C79.7007 63.0621 80.1907 63.5471 80.5407 64.1771C80.9007 64.8071 81.0807 65.5421 81.0807 66.3821ZM78.4557 65.7071C78.4557 65.2671 78.3057 64.9171 78.0057 64.6571C77.7057 64.3971 77.3307 64.2671 76.8807 64.2671C76.4507 64.2671 76.0857 64.3921 75.7857 64.6421C75.4957 64.8921 75.3157 65.2471 75.2457 65.7071H78.4557ZM84.9989 63.7271C85.2989 63.2671 85.6739 62.9071 86.1239 62.6471C86.5739 62.3771 87.0739 62.2421 87.6239 62.2421V64.9571H86.9189C86.2789 64.9571 85.7989 65.0971 85.4789 65.3771C85.1589 65.6471 84.9989 66.1271 84.9989 66.8171V70.7021H82.4339V62.3321H84.9989V63.7271ZM88.3399 66.5021C88.3399 65.6421 88.4999 64.8871 88.8199 64.2371C89.1499 63.5871 89.5949 63.0871 90.1549 62.7371C90.7149 62.3871 91.3399 62.2121 92.0299 62.2121C92.6199 62.2121 93.1349 62.3321 93.5749 62.5721C94.0249 62.8121 94.3699 63.1271 94.6099 63.5171V62.3321H97.1749V70.7021H94.6099V69.5171C94.3599 69.9071 94.0099 70.2221 93.5599 70.4621C93.1199 70.7021 92.6049 70.8221 92.0149 70.8221C91.3349 70.8221 90.7149 70.6471 90.1549 70.2971C89.5949 69.9371 89.1499 69.4321 88.8199 68.7821C88.4999 68.1221 88.3399 67.3621 88.3399 66.5021ZM94.6099 66.5171C94.6099 65.8771 94.4299 65.3721 94.0699 65.0021C93.7199 64.6321 93.2899 64.4471 92.7799 64.4471C92.2699 64.4471 91.8349 64.6321 91.4749 65.0021C91.1249 65.3621 90.9499 65.8621 90.9499 66.5021C90.9499 67.1421 91.1249 67.6521 91.4749 68.0321C91.8349 68.4021 92.2699 68.5871 92.7799 68.5871C93.2899 68.5871 93.7199 68.4021 94.0699 68.0321C94.4299 67.6621 94.6099 67.1571 94.6099 66.5171ZM103.696 68.5271V70.7021H102.391C101.461 70.7021 100.736 70.4771 100.216 70.0271C99.6956 69.5671 99.4356 68.8221 99.4356 67.7921V64.4621H98.4156V62.3321H99.4356V60.2921H102.001V62.3321H103.681V64.4621H102.001V67.8221C102.001 68.0721 102.061 68.2521 102.181 68.3621C102.301 68.4721 102.501 68.5271 102.781 68.5271H103.696ZM108.934 70.8221C108.114 70.8221 107.374 70.6471 106.714 70.2971C106.064 69.9471 105.549 69.4471 105.169 68.7971C104.799 68.1471 104.614 67.3871 104.614 66.5171C104.614 65.6571 104.804 64.9021 105.184 64.2521C105.564 63.5921 106.084 63.0871 106.744 62.7371C107.404 62.3871 108.144 62.2121 108.964 62.2121C109.784 62.2121 110.524 62.3871 111.184 62.7371C111.844 63.0871 112.364 63.5921 112.744 64.2521C113.124 64.9021 113.314 65.6571 113.314 66.5171C113.314 67.3771 113.119 68.1371 112.729 68.7971C112.349 69.4471 111.824 69.9471 111.154 70.2971C110.494 70.6471 109.754 70.8221 108.934 70.8221ZM108.934 68.6021C109.424 68.6021 109.839 68.4221 110.179 68.0621C110.529 67.7021 110.704 67.1871 110.704 66.5171C110.704 65.8471 110.534 65.3321 110.194 64.9721C109.864 64.6121 109.454 64.4321 108.964 64.4321C108.464 64.4321 108.049 64.6121 107.719 64.9721C107.389 65.3221 107.224 65.8371 107.224 66.5171C107.224 67.1871 107.384 67.7021 107.704 68.0621C108.034 68.4221 108.444 68.6021 108.934 68.6021ZM117.24 63.7271C117.54 63.2671 117.915 62.9071 118.365 62.6471C118.815 62.3771 119.315 62.2421 119.865 62.2421V64.9571H119.16C118.52 64.9571 118.04 65.0971 117.72 65.3771C117.4 65.6471 117.24 66.1271 117.24 66.8171V70.7021H114.675V62.3321H117.24V63.7271Z" fill="#111827"/>
</svg>
